<svg xmlns="http://www.w3.org/2000/svg" xmlns:xlink="http://www.w3.org/1999/xlink" version="1.1" width="16" height="16" viewBox="0 0 16 16" xml:space="preserve">
    <desc>
        Created with Fabric.js 5.4.0
    </desc>
    <defs/>
    <rect x="0" y="0" width="100%" height="100%" fill="transparent"/>
    <g transform="matrix(1 0 0 1 8.5 8.29)">
        <g style="">
            <g transform="matrix(1 0 0 1 0 0)">
                <rect x="-7.052235709749124" y="-6.215" rx="0" ry="0" width="14.104471419498248" height="12.43" stroke="rgb(255,255,255)" stroke-opacity="0" stroke-width="1" stroke-dasharray="none" stroke-linecap="butt" stroke-dashoffset="0" stroke-linejoin="miter" stroke-miterlimit="4" fill="rgb(255,255,255)" fill-opacity="0" fill-rule="nonzero" opacity="1"/>
            </g>
            <g transform="matrix(1 0 0 1 -0.42 -0.68)">
                <path paint-order="stroke" transform=" translate(-8.08, -7.62)" d="M 9.96 3.24 Q 9.96 2.91 10.13 2.74 Q 10.29 2.57 10.54 2.57 Q 10.78 2.57 10.95 2.72 L 10.95 2.72 L 10.95 8.73 L 11.93 8.73 Q 12.12 8.73 12.22 8.82 Q 12.33 8.92 12.33 9.06 Q 12.33 9.2 12.23 9.3 L 12.23 9.3 L 10.95 9.3 L 10.95 11.39 Q 10.95 11.72 10.79 11.89 Q 10.62 12.06 10.38 12.06 Q 10.14 12.06 9.96 11.91 L 9.96 11.91 L 9.96 9.3 L 6.74 9.3 L 6.74 9.92 Q 6.74 11.29 6.32 11.98 Q 5.9 12.66 4.99 12.66 L 4.99 12.66 Q 4.44 12.66 4.13 12.31 Q 3.83 11.95 3.83 11.3 L 3.83 11.3 Q 3.83 10.27 4.39 9.62 Q 4.96 8.97 5.75 8.82 L 5.75 8.82 L 5.75 4.21 Q 5.75 3.88 5.92 3.71 Q 6.08 3.54 6.32 3.54 Q 6.56 3.54 6.74 3.69 L 6.74 3.69 L 6.74 8.74 L 9.96 8.74 L 9.96 3.24 Z M 4.33 11.34 Q 4.33 11.76 4.51 11.98 Q 4.69 12.2 5.03 12.2 Q 5.37 12.2 5.55 11.72 Q 5.74 11.25 5.75 10.01 L 5.75 10.01 L 5.75 9.39 Q 5.12 9.53 4.73 10.04 Q 4.33 10.55 4.33 11.34 L 4.33 11.34 Z" stroke-linecap="butt" stroke="rgb(255,255,255)" stroke-width="0" stroke-dasharray="none" stroke-dashoffset="0" stroke-linejoin="miter" stroke-miterlimit="4" fill="rgb(0,146,202)" fill-rule="nonzero" opacity="1"/>
            </g>
        </g>
    </g>
</svg>
