<svg data-id="lg_9IKUNIIfKUSgVorXdr" data-version="1" viewBox="638 40 688 552" xml:space="preserve" xmlns="http://www.w3.org/2000/svg" style="max-height: 500px" width="688" height="552"><g transform="matrix(1,0,0,1,0,0)" data-padding="20" id="outer-wrapper"><g transform="matrix(0.9746192893401016,0,0,0.9746192893401016,10,8.274111675126903)" id="inner-wrapper"><rect transform="translate(257.83 400)scale(1.36)" ry="0" rx="0" fill="none" y="-293.9717647058823" x="267.58644852941154" height="479.12" width="371.452"/><path d="M977.3049299999999 86.43Q977.3049299999999 69.08000000000001 985.98493 60.110000000000014Q994.6649299999999 51.150000000000006 1007.3849299999999 51.150000000000006Q1020.11493 51.150000000000006 1029.3649300000002 59.25V375.06H1080.8449300000002Q1090.6749300000001 375.06 1096.1749300000001 379.98Q1101.66493 384.90000000000003 1101.66493 392.42T1096.46493 405.14000000000004H1029.3649300000002V515.0400000000001Q1029.3649300000002 532.3900000000001 1020.6949299999999 541.3600000000001Q1012.0149299999999 550.3300000000002 999.2849299999999 550.3300000000002Q986.5649299999999 550.3300000000002 977.3049299999999 542.2300000000001V405.14H807.8349299999999V437.53Q807.8349299999999 509.8399999999999 785.85493 545.6999999999999T715.86493 581.56Q686.94493 581.56 670.74493 563.05Q654.5549299999999 544.54 654.5549299999999 510.40999999999997Q654.5549299999999 456.03999999999996 684.33493 421.91999999999996Q714.12493 387.78999999999996 755.7749299999999 379.68999999999994V137.33Q755.7749299999999 119.98000000000002 764.45493 111.02000000000001Q773.12493 102.05000000000001 785.85493 102.05000000000001Q798.57493 102.05000000000001 807.83493 110.15V375.64H977.3049299999999ZM681.1549299999999 512.15Q681.1549299999999 534.13 690.7049299999999 545.6999999999999Q700.24493 557.27 717.8849299999999 557.27T745.3649299999998 532.39Q755.1949299999999 507.52 755.7749299999999 442.15999999999997V409.77Q722.8049299999999 417.28999999999996 701.98493 443.9Q681.1549299999999 470.5 681.1549299999999 512.15" fill="#0092ca"/><rect transform="translate(452.63 399.41)scale(1.36)" ry="0" rx="0" fill="none" y="-123.34176470588235" x="202.81244852941165" height="137.86" width="501"/><path d="M835.4249299999999 377.94H784.1049299999999L810.1149299999998 273.92H861.4349299999999L858.5449299999999 285.71000000000004H820.4049299999999L814.8549299999999 307.90000000000003H844.9049299999999L842.0149299999999 319.69000000000005H811.96493L800.1749299999999 366.1600000000001H838.3149299999999ZM898.6449299999999 377.94H856.9249299999999L882.9249299999999 273.92H911.3649299999998Q924.8849299999998 273.92 935.6849299999999 279.7Q946.4949299999998 285.47999999999996 952.8549299999999 295.77Q959.2149299999999 306.04999999999995 959.2149299999999 319.58Q959.2149299999999 331.47999999999996 954.2949299999999 342Q949.3849299999998 352.52 940.8349299999999 360.61T921.4149299999999 373.32Q910.5549299999999 377.94 898.6449299999999 377.94M893.2149299999999 285.71L872.9849299999998 366.15999999999997H898.5349299999999Q908.00493 366.15999999999997 916.50493 362.51Q924.99493 358.87 931.5249299999999 352.52Q938.0549299999999 346.15999999999997 941.8149299999999 337.95Q945.5749299999999 329.75 945.5749299999999 320.5Q945.5749299999999 310.22 940.8349299999999 302.36T927.7749299999999 290.11Q919.4549299999999 285.71000000000004 908.7049299999999 285.71000000000004ZM1055.8449299999997 380.02Q1042.3249299999998 380.02 1031.4549299999999 373.72999999999996Q1020.5949299999999 367.42999999999995 1014.2949299999999 356.55999999999995Q1007.9949299999998 345.69999999999993 1007.9949299999998 332.28999999999996Q1007.9949299999998 320.39 1012.9049299999999 309.52Q1017.8149299999999 298.65999999999997 1026.37493 290.15999999999997Q1034.9249300000001 281.66999999999996 1045.7849299999998 276.76Q1056.6549300000001 271.84 1068.5549299999998 271.84Q1082.0749299999998 271.84 1092.8849300000002 278.14T1110.04493 295.25Q1116.4049300000001 306.05 1116.4049300000001 319.58Q1116.4049300000001 331.47999999999996 1111.4949299999998 342.34999999999997Q1106.58493 353.21 1098.02493 361.71Q1089.4749299999999 370.2 1078.6149299999997 375.10999999999996Q1067.7449299999998 380.02 1055.8449299999997 380.02M1057.1149299999997 367.53999999999996Q1066.12493 367.53999999999996 1074.33493 363.72999999999996Q1082.54493 359.90999999999997 1088.9549299999999 353.27Q1095.37493 346.62 1099.06493 338.19Q1102.7649299999998 329.75 1102.7649299999998 320.5Q1102.7649299999998 310.22 1098.08493 302.01T1085.37493 289.06Q1077.3449299999997 284.33 1067.2849299999998 284.33Q1058.27493 284.33 1050.06493 288.14T1035.44493 298.59999999999997Q1029.02493 305.24999999999994 1025.33493 313.67999999999995Q1021.6349299999998 322.11999999999995 1021.6349299999998 331.36999999999995Q1021.6349299999998 341.6499999999999 1026.31493 349.85999999999996Q1030.9949299999998 358.05999999999995 1039.02493 362.79999999999995T1057.1149299999997 367.53999999999996M1137.54493 377.93999999999994H1125.06493L1151.06493 273.22999999999996L1181.81493 337.15L1248.1549300000001 267.67999999999995L1220.87493 377.47999999999996H1207.7049299999999L1220.3049300000002 327.09Q1221.3449300000002 322.81 1222.6749300000001 317.84Q1223.9949300000003 312.86999999999995 1225.96493 306.75Q1221.4549299999999 312.06 1217.52493 316.23Q1213.5949300000002 320.39000000000004 1210.2449299999998 323.97L1177.3049299999998 358.53000000000003L1163.3249299999998 329.52000000000004Q1161.2449299999998 325.13000000000005 1158.87493 319.64000000000004T1154.0749299999998 306.75000000000006Q1152.91493 314.95000000000005 1151.5349299999998 321.25000000000006Q1150.14493 327.55000000000007 1148.87493 332.64000000000004ZM1281.79493 377.93999999999994H1268.62493L1281.2249299999999 327.66999999999996L1263.4249300000001 273.91999999999996H1277.29493L1286.7649300000003 304.21Q1287.69493 307.09999999999997 1288.50493 309.93T1289.77493 316.46Q1292.2049299999999 312.76 1294.33493 309.93Q1296.4749299999999 307.1 1298.9049300000001 304.21L1323.75493 273.91999999999996H1339.00493L1294.39493 327.66999999999996Z" fill="#222831"/></g><rect stroke="transparent" fill="transparent" id="space-saver" y="0" x="606" height="652" width="788"/></g></svg>